<?xml version="1.0" encoding="UTF-8"?>
<svg id="Layer_2" data-name="Layer 2" xmlns="http://www.w3.org/2000/svg" viewBox="0 0 1091.03 299.94">
  <g id="Layer_1-2" data-name="Layer 1">
    <g>
      <path d="m153.75,199.81c-.23,2.32,21.63,8.23,48.38,8.71,18.66.34,37.04-5.72,53.23-14.68,12.38-6.85,22.98-16.22,34.44-24.4,13.35-9.51,32.2-23.43,48.98-13.55,1.73,1.02,3.44,2.43,3.84,4.39.41,2.04-.72,4.07-1.99,5.71-2.14,2.76-4.8,5.08-7.44,7.38-30.37,26.43-61.16,55.37-97.23,73.91-6.92,3.55-14.12,6.62-21.63,8.71-8.17,2.28-16.77,3.42-25.22,2.19-18.53-2.71-36.79-7.43-55.27-10.66-19.62-3.43-42-5.53-61.15,1.18-23.12,8.11-40.49,24.21-41.33,25.03-13.01,12.63-22.11,28.24-27.7,25.99-2-.8-2.65-3.53-2.91-4.62-1.68-7.1-.19-15.33,1.05-22.37,2.19-12.44,5.97-24.63,10.84-36.27,13.42-32.07,36.87-61.1,68.47-76.62,11.56-5.68,24.38-8.76,37.25-8.97,14.85-.25,29.92,4.48,44.56,6.58,9.92,1.43,19.88,2.56,29.86,3.41,11.37.96,26.51-.21,36.04,7.27,3.36,2.64,5.56,6.56,4.77,10.93-1.38,7.69-10.97,11.01-17.63,12.3-6.76,1.3-13.75,1.05-20.59,1.58-6.46.5-12.91,1.15-19.34,1.95-2.35.29-21.96,1.56-22.3,4.93Z"/>
      <path d="m137.98,92.3c-2.58-2.2-2.51-6.17.1-8.32,5-4.11,10.07-7.82,15.78-10.65,4.14-2.05,7.98-.79,11.1,1.92,4.75,4.14,9.33,8.54,13.57,13.21,4.25,4.67,7.99,9.8,11.96,14.73.64.8,1.29,1.61,2.22,2.78,1.43-1.66,2.7-3.13,3.98-4.6,14.47-16.69,28.52-33.78,43.52-49.98,17.22-18.59,36.55-34.76,59.69-45.75,4.41-2.09,9.06-3.68,13.53-5.62.14-.06.25.12.14.22l-6.83,5.96c-16.88,14.72-31.14,31.79-44.4,49.75-16.6,22.48-30.64,46.61-45.62,70.15-1.3,2.05-2.77,4-3.92,6.13-4.37,8.06-11.61,11.34-20.24,12.17-3.56.35-7.19.43-10.75.14-4.1-.34-7.79-2.62-9.98-6.11-4.31-6.9-8.44-13.93-12.88-20.74-6-9.19-12.41-18.05-20.98-25.37Z"/>
      <path d="m444.09,235.64h-6.92c-1.79,0-3-.79-3.61-2.38l-40.72-102.03c-.21-.46-.31-.92-.31-1.38,0-.66.23-1.19.69-1.57.46-.38,1.13-.58,2-.58h8.45c1.74,0,2.92.79,3.53,2.38l33.42,86.43.15-.15,33.19-86.28c.62-1.59,1.79-2.38,3.53-2.38h8.38c.87,0,1.54.18,2,.54.46.36.69.87.69,1.54,0,.51-.1,1-.31,1.46l-40.64,102.03c-.62,1.59-1.79,2.38-3.53,2.38Z"/>
      <path d="m510.99,231.34c-6.91-4.25-12.4-10.01-16.44-17.29-4.05-7.27-6.07-15.24-6.07-23.89s1.88-16.74,5.65-24.09c3.76-7.35,8.9-13.16,15.4-17.44,6.5-4.28,13.67-6.42,21.51-6.42,8.4,0,15.79,2.07,22.17,6.22,6.38,4.15,11.29,9.86,14.75,17.13,3.46,7.27,5.19,15.42,5.19,24.43v3.23c-.05.72-.35,1.27-.88,1.65s-1.29.58-2.27.58h-68.3c.72,5.94,2.62,11.15,5.72,15.63,3.1,4.48,6.99,7.93,11.68,10.33s9.72,3.61,15.1,3.61c8.76,0,16.7-2.92,23.82-8.76.72-.61,1.41-.92,2.07-.92.87,0,1.61.46,2.23,1.38l3.61,5.3c.51.77.77,1.43.77,2,0,.87-.41,1.64-1.23,2.31-4.35,3.64-9.21,6.44-14.56,8.41-5.35,1.97-11.1,2.96-17.25,2.96-8.2,0-15.75-2.12-22.67-6.38Zm43.99-63.23c-2.54-4.25-5.83-7.52-9.87-9.8-4.05-2.28-8.63-3.42-13.75-3.42s-9.4,1.17-13.6,3.5c-4.2,2.33-7.71,5.64-10.53,9.91-2.82,4.28-4.64,9.23-5.45,14.87h58.08c-.72-5.79-2.34-10.81-4.88-15.06Z"/>
      <path d="m601.4,235.64h-6.99c-2.05,0-3.07-1.02-3.07-3.07v-113.94c0-2.05,1.02-3.07,3.07-3.07h6.99c2.05,0,3.07,1.02,3.07,3.07v113.94c0,2.05-1.03,3.07-3.07,3.07Z"/>
      <path d="m646.14,231.38c-7.15-4.23-12.84-9.99-17.09-17.29-4.25-7.3-6.38-15.28-6.38-23.93s2.12-16.8,6.38-24.12c4.25-7.32,9.96-13.12,17.13-17.4,7.17-4.28,14.93-6.42,23.28-6.42s16.03,2.14,23.2,6.42c7.17,4.28,12.88,10.08,17.13,17.4,4.25,7.33,6.38,15.37,6.38,24.12s-2.14,16.63-6.42,23.93c-4.28,7.3-10.01,13.06-17.21,17.29-7.2,4.23-14.94,6.34-23.24,6.34s-16.02-2.11-23.16-6.34Zm39.91-10.95c5.12-3.07,9.22-7.29,12.29-12.64,3.07-5.35,4.61-11.25,4.61-17.71s-1.54-12.38-4.61-17.79c-3.07-5.4-7.17-9.65-12.29-12.75-5.12-3.1-10.63-4.65-16.52-4.65s-11.5,1.55-16.67,4.65c-5.17,3.1-9.3,7.35-12.37,12.75-3.07,5.4-4.61,11.33-4.61,17.79s1.54,12.36,4.61,17.71c3.07,5.35,7.2,9.57,12.37,12.64,5.17,3.07,10.73,4.61,16.67,4.61s11.4-1.54,16.52-4.61Z"/>
      <path d="m806.27,115.56h6.99c2.05,0,3.07,1.02,3.07,3.07v113.94c0,2.05-1.03,3.07-3.07,3.07h-6.53c-1.03,0-1.81-.26-2.34-.77-.54-.51-.81-1.25-.81-2.23l-.15-12.37c-3.53,5.33-7.96,9.53-13.29,12.6-5.33,3.07-11.42,4.61-18.29,4.61-8.3,0-15.78-2.1-22.43-6.3-6.66-4.2-11.86-9.94-15.6-17.21-3.74-7.27-5.61-15.31-5.61-24.12s1.88-16.77,5.65-24.05c3.76-7.27,8.98-13.02,15.63-17.25,6.66-4.23,14.11-6.34,22.36-6.34,6.76,0,12.82,1.45,18.17,4.34,5.35,2.89,9.74,6.8,13.18,11.72v-39.64c0-2.05,1.02-3.07,3.07-3.07Zm-17.79,104.72c4.84-3.02,8.62-7.17,11.33-12.45,2.71-5.27,4.07-11.19,4.07-17.75s-1.36-12.52-4.07-17.9-6.49-9.6-11.33-12.68c-4.84-3.07-10.31-4.61-16.4-4.61s-11.32,1.54-15.98,4.61c-4.66,3.07-8.27,7.29-10.83,12.64-2.56,5.35-3.84,11.33-3.84,17.94s1.28,12.47,3.84,17.75c2.56,5.28,6.16,9.42,10.79,12.45,4.63,3.02,9.95,4.53,15.94,4.53s11.64-1.51,16.48-4.53Z"/>
      <path d="m858,231.38c-7.15-4.23-12.84-9.99-17.09-17.29-4.25-7.3-6.38-15.28-6.38-23.93s2.12-16.8,6.38-24.12c4.25-7.32,9.96-13.12,17.13-17.4,7.17-4.28,14.93-6.42,23.28-6.42s16.03,2.14,23.2,6.42c7.17,4.28,12.88,10.08,17.13,17.4,4.25,7.33,6.38,15.37,6.38,24.12s-2.14,16.63-6.42,23.93c-4.28,7.3-10.01,13.06-17.21,17.29-7.2,4.23-14.94,6.34-23.24,6.34s-16.02-2.11-23.16-6.34Zm39.91-10.95c5.12-3.07,9.22-7.29,12.29-12.64,3.07-5.35,4.61-11.25,4.61-17.71s-1.54-12.38-4.61-17.79c-3.07-5.4-7.17-9.65-12.29-12.75-5.12-3.1-10.63-4.65-16.52-4.65s-11.5,1.55-16.67,4.65c-5.17,3.1-9.3,7.35-12.37,12.75-3.07,5.4-4.61,11.33-4.61,17.79s1.54,12.36,4.61,17.71c3.07,5.35,7.2,9.57,12.37,12.64,5.17,3.07,10.73,4.61,16.67,4.61s11.4-1.54,16.52-4.61Z"/>
      <path d="m1001.39,147.13c1.13.67,1.69,1.51,1.69,2.54,0,.56-.15,1.13-.46,1.69l-3,5.92c-.62,1.13-1.41,1.69-2.38,1.69-.56,0-1.18-.18-1.84-.54-4.51-2.36-8.81-3.53-12.91-3.53s-7.7,1.37-11.26,4.11c-3.56,2.74-6.43,6.56-8.6,11.45-2.18,4.89-3.27,10.38-3.27,16.48v45.64c0,2.05-1.03,3.07-3.07,3.07h-6.99c-2.05,0-3.07-1.02-3.07-3.07v-85.66c0-2.05,1.02-3.07,3.07-3.07h5.99c2.05,0,3.1,1,3.15,3l.31,9.76c3.17-4.56,6.72-8.09,10.64-10.6,3.92-2.51,8.8-3.76,14.64-3.76,5.48,0,11.27,1.64,17.36,4.92Z"/>
      <path d="m1081.35,143.83h6.61c2.05,0,3.07,1.03,3.07,3.07v85.66c0,2.05-1.03,3.07-3.07,3.07h-6.53c-2,0-3.05-1-3.15-3l-.15-12.37c-3.53,5.33-7.96,9.53-13.29,12.6-5.33,3.07-11.42,4.61-18.29,4.61-8.3,0-15.78-2.1-22.43-6.3-6.66-4.2-11.86-9.94-15.6-17.21-3.74-7.27-5.61-15.31-5.61-24.12s1.88-16.77,5.65-24.05c3.76-7.27,8.98-13.02,15.63-17.25,6.66-4.23,14.11-6.34,22.36-6.34,6.97,0,13.1,1.52,18.4,4.57,5.3,3.05,9.69,7.21,13.18,12.48l.15-12.45c.1-2,1.13-3,3.07-3Zm-18.17,76.44c4.84-3.02,8.62-7.17,11.33-12.45,2.71-5.27,4.07-11.19,4.07-17.75s-1.36-12.52-4.07-17.9-6.49-9.6-11.33-12.68c-4.84-3.07-10.31-4.61-16.4-4.61s-11.32,1.54-15.98,4.61c-4.66,3.07-8.27,7.29-10.83,12.64-2.56,5.35-3.84,11.33-3.84,17.94s1.28,12.47,3.84,17.75c2.56,5.28,6.16,9.42,10.79,12.45,4.63,3.02,9.95,4.53,15.94,4.53s11.64-1.51,16.48-4.53Z"/>
    </g>
  </g>
</svg>