<svg width="25" height="24" viewBox="0 0 25 24" fill="none" xmlns="http://www.w3.org/2000/svg">
<path d="M14.979 19.3736L14.008 20.3126C13.8217 20.5266 13.5919 20.6985 13.334 20.8169C13.0762 20.9352 12.796 20.9974 12.5123 20.9992C12.2285 21.001 11.9476 20.9424 11.6883 20.8273C11.4289 20.7122 11.197 20.5432 11.008 20.3316L5.5 14.9996C4 13.4996 2.5 11.7996 2.5 9.49955C2.50002 8.38675 2.83759 7.30014 3.46813 6.38322C4.09867 5.4663 4.99252 4.76221 6.03161 4.36395C7.0707 3.96569 8.20616 3.892 9.28801 4.1526C10.3699 4.4132 11.3472 4.99583 12.091 5.82355C12.1434 5.87957 12.2067 5.92422 12.2771 5.95475C12.3474 5.98528 12.4233 6.00104 12.5 6.00104C12.5767 6.00104 12.6526 5.98528 12.7229 5.95475C12.7933 5.92422 12.8566 5.87957 12.909 5.82355C13.6504 4.99045 14.628 4.40292 15.7116 4.13915C16.7952 3.87539 17.9335 3.9479 18.9749 4.34704C20.0163 4.74617 20.9114 5.453 21.5411 6.37345C22.1708 7.2939 22.5053 8.38431 22.5 9.49955C22.4997 10.0042 22.4259 10.5061 22.281 10.9896" stroke="#333333" stroke-width="2" stroke-linecap="round" stroke-linejoin="round"/>
<path d="M14.979 19.3736L14.008 20.3126C13.8217 20.5266 13.5919 20.6985 13.334 20.8169C13.0762 20.9352 12.796 20.9974 12.5123 20.9992C12.2285 21.001 11.9476 20.9424 11.6883 20.8273C11.4289 20.7122 11.197 20.5432 11.008 20.3316L5.5 14.9996C4 13.4996 2.5 11.7996 2.5 9.49955C2.50002 8.38675 2.83759 7.30014 3.46813 6.38322C4.09867 5.4663 4.99252 4.76221 6.03161 4.36395C7.0707 3.96569 8.20616 3.892 9.28801 4.1526C10.3699 4.4132 11.3472 4.99583 12.091 5.82355C12.1434 5.87957 12.2067 5.92422 12.2771 5.95475C12.3474 5.98528 12.4233 6.00104 12.5 6.00104C12.5767 6.00104 12.6526 5.98528 12.7229 5.95475C12.7933 5.92422 12.8566 5.87957 12.909 5.82355C13.6504 4.99045 14.628 4.40292 15.7116 4.13915C16.7952 3.87539 17.9335 3.9479 18.9749 4.34704C20.0163 4.74617 20.9114 5.453 21.5411 6.37345C22.1708 7.2939 22.5053 8.38431 22.5 9.49955C22.4997 10.0042 22.4259 10.5061 22.281 10.9896" stroke="black" stroke-opacity="0.2" stroke-width="2" stroke-linecap="round" stroke-linejoin="round"/>
<path d="M14.979 19.3736L14.008 20.3126C13.8217 20.5266 13.5919 20.6985 13.334 20.8169C13.0762 20.9352 12.796 20.9974 12.5123 20.9992C12.2285 21.001 11.9476 20.9424 11.6883 20.8273C11.4289 20.7122 11.197 20.5432 11.008 20.3316L5.5 14.9996C4 13.4996 2.5 11.7996 2.5 9.49955C2.50002 8.38675 2.83759 7.30014 3.46813 6.38322C4.09867 5.4663 4.99252 4.76221 6.03161 4.36395C7.0707 3.96569 8.20616 3.892 9.28801 4.1526C10.3699 4.4132 11.3472 4.99583 12.091 5.82355C12.1434 5.87957 12.2067 5.92422 12.2771 5.95475C12.3474 5.98528 12.4233 6.00104 12.5 6.00104C12.5767 6.00104 12.6526 5.98528 12.7229 5.95475C12.7933 5.92422 12.8566 5.87957 12.909 5.82355C13.6504 4.99045 14.628 4.40292 15.7116 4.13915C16.7952 3.87539 17.9335 3.9479 18.9749 4.34704C20.0163 4.74617 20.9114 5.453 21.5411 6.37345C22.1708 7.2939 22.5053 8.38431 22.5 9.49955C22.4997 10.0042 22.4259 10.5061 22.281 10.9896" stroke="black" stroke-opacity="0.2" stroke-width="2" stroke-linecap="round" stroke-linejoin="round"/>
<path d="M14.979 19.3736L14.008 20.3126C13.8217 20.5266 13.5919 20.6985 13.334 20.8169C13.0762 20.9352 12.796 20.9974 12.5123 20.9992C12.2285 21.001 11.9476 20.9424 11.6883 20.8273C11.4289 20.7122 11.197 20.5432 11.008 20.3316L5.5 14.9996C4 13.4996 2.5 11.7996 2.5 9.49955C2.50002 8.38675 2.83759 7.30014 3.46813 6.38322C4.09867 5.4663 4.99252 4.76221 6.03161 4.36395C7.0707 3.96569 8.20616 3.892 9.28801 4.1526C10.3699 4.4132 11.3472 4.99583 12.091 5.82355C12.1434 5.87957 12.2067 5.92422 12.2771 5.95475C12.3474 5.98528 12.4233 6.00104 12.5 6.00104C12.5767 6.00104 12.6526 5.98528 12.7229 5.95475C12.7933 5.92422 12.8566 5.87957 12.909 5.82355C13.6504 4.99045 14.628 4.40292 15.7116 4.13915C16.7952 3.87539 17.9335 3.9479 18.9749 4.34704C20.0163 4.74617 20.9114 5.453 21.5411 6.37345C22.1708 7.2939 22.5053 8.38431 22.5 9.49955C22.4997 10.0042 22.4259 10.5061 22.281 10.9896" stroke="black" stroke-opacity="0.2" stroke-width="2" stroke-linecap="round" stroke-linejoin="round"/>
<path d="M15.5 15H21.5" stroke="#333333" stroke-width="2" stroke-linecap="round" stroke-linejoin="round"/>
<path d="M15.5 15H21.5" stroke="black" stroke-opacity="0.2" stroke-width="2" stroke-linecap="round" stroke-linejoin="round"/>
<path d="M15.5 15H21.5" stroke="black" stroke-opacity="0.2" stroke-width="2" stroke-linecap="round" stroke-linejoin="round"/>
<path d="M15.5 15H21.5" stroke="black" stroke-opacity="0.2" stroke-width="2" stroke-linecap="round" stroke-linejoin="round"/>
<path d="M18.5 12V18" stroke="#333333" stroke-width="2" stroke-linecap="round" stroke-linejoin="round"/>
<path d="M18.5 12V18" stroke="black" stroke-opacity="0.2" stroke-width="2" stroke-linecap="round" stroke-linejoin="round"/>
<path d="M18.5 12V18" stroke="black" stroke-opacity="0.2" stroke-width="2" stroke-linecap="round" stroke-linejoin="round"/>
<path d="M18.5 12V18" stroke="black" stroke-opacity="0.2" stroke-width="2" stroke-linecap="round" stroke-linejoin="round"/>
</svg>
