<svg width="25" height="24" viewBox="0 0 25 24" fill="none" xmlns="http://www.w3.org/2000/svg">
<path d="M8 8.25H17M8 11.25H12.5M2.75 12.76C2.75 14.36 3.873 15.754 5.457 15.987C6.586 16.153 7.727 16.28 8.88 16.366C9.23 16.392 9.55 16.576 9.745 16.867L12.5 21L15.255 16.867C15.3516 16.7233 15.4798 16.6034 15.6297 16.5166C15.7795 16.4298 15.9472 16.3783 16.12 16.366C17.2652 16.2805 18.4069 16.1541 19.543 15.987C21.127 15.754 22.25 14.361 22.25 12.759V6.741C22.25 5.139 21.127 3.746 19.543 3.513C17.211 3.17072 14.857 2.99926 12.5 3C10.108 3 7.756 3.175 5.457 3.513C3.873 3.746 2.75 5.14 2.75 6.741V12.759V12.76Z" stroke="white" stroke-width="1.5" stroke-linecap="round" stroke-linejoin="round"/>
</svg>
