<svg width="24" height="24" viewBox="0 0 24 24" fill="none" xmlns="http://www.w3.org/2000/svg">
<path d="M4 19.5V4.5C4 3.83696 4.26339 3.20107 4.73223 2.73223C5.20107 2.26339 5.83696 2 6.5 2H19C19.2652 2 19.5196 2.10536 19.7071 2.29289C19.8946 2.48043 20 2.73478 20 3V21C20 21.2652 19.8946 21.5196 19.7071 21.7071C19.5196 21.8946 19.2652 22 19 22H6.5C5.83696 22 5.20107 21.7366 4.73223 21.2678C4.26339 20.7989 4 20.163 4 19.5ZM4 19.5C4 18.837 4.26339 18.2011 4.73223 17.7322C5.20107 17.2634 5.83696 17 6.5 17H20" stroke="#FF7887" stroke-width="1.5" stroke-linecap="round" stroke-linejoin="round"/>
<path d="M8.61999 9.7999C8.40961 9.58056 8.24585 9.32087 8.13858 9.0365C8.03132 8.75213 7.98279 8.44898 7.9959 8.14534C8.00902 7.8417 8.08351 7.54386 8.21489 7.2698C8.34628 6.99574 8.53182 6.75113 8.76033 6.55075C8.98884 6.35036 9.25557 6.19835 9.54445 6.10388C9.83332 6.00941 10.1383 5.97445 10.4411 6.0011C10.7438 6.02775 11.0381 6.11546 11.306 6.25893C11.5739 6.40241 11.81 6.59868 12 6.8359C12.1909 6.60116 12.4272 6.40733 12.6947 6.26601C12.9623 6.12469 13.2556 6.03879 13.5571 6.01343C13.8586 5.98808 14.1621 6.0238 14.4495 6.11846C14.7369 6.21311 15.0022 6.36476 15.2296 6.56433C15.4571 6.7639 15.6419 7.00729 15.7731 7.27994C15.9043 7.55259 15.9792 7.84891 15.9932 8.15115C16.0072 8.4534 15.9601 8.75537 15.8548 9.03901C15.7494 9.32265 15.5879 9.58212 15.38 9.8019L12.754 12.6579C12.6603 12.7658 12.5446 12.8523 12.4146 12.9115C12.2846 12.9708 12.1434 13.0015 12.0005 13.0015C11.8576 13.0015 11.7164 12.9708 11.5864 12.9115C11.4564 12.8523 11.3407 12.7658 11.247 12.6579L8.61999 9.7999Z" stroke="#FF7887" stroke-width="1.5" stroke-linecap="round" stroke-linejoin="round"/>
</svg>
