<svg width="25" height="24" viewBox="0 0 25 24" fill="none" xmlns="http://www.w3.org/2000/svg">
<path d="M16 7.5L18.3 9.8C18.4869 9.98323 18.7382 10.0859 19 10.0859C19.2618 10.0859 19.5131 9.98323 19.7 9.8L21.8 7.7C21.9832 7.51307 22.0859 7.26175 22.0859 7C22.0859 6.73825 21.9832 6.48693 21.8 6.3L19.5 4" stroke="#333333" stroke-width="1.5" stroke-linecap="round" stroke-linejoin="round"/>
<path d="M16 7.5L18.3 9.8C18.4869 9.98323 18.7382 10.0859 19 10.0859C19.2618 10.0859 19.5131 9.98323 19.7 9.8L21.8 7.7C21.9832 7.51307 22.0859 7.26175 22.0859 7C22.0859 6.73825 21.9832 6.48693 21.8 6.3L19.5 4" stroke="black" stroke-opacity="0.2" stroke-width="1.5" stroke-linecap="round" stroke-linejoin="round"/>
<path d="M16 7.5L18.3 9.8C18.4869 9.98323 18.7382 10.0859 19 10.0859C19.2618 10.0859 19.5131 9.98323 19.7 9.8L21.8 7.7C21.9832 7.51307 22.0859 7.26175 22.0859 7C22.0859 6.73825 21.9832 6.48693 21.8 6.3L19.5 4" stroke="black" stroke-opacity="0.2" stroke-width="1.5" stroke-linecap="round" stroke-linejoin="round"/>
<path d="M16 7.5L18.3 9.8C18.4869 9.98323 18.7382 10.0859 19 10.0859C19.2618 10.0859 19.5131 9.98323 19.7 9.8L21.8 7.7C21.9832 7.51307 22.0859 7.26175 22.0859 7C22.0859 6.73825 21.9832 6.48693 21.8 6.3L19.5 4" stroke="black" stroke-opacity="0.2" stroke-width="1.5" stroke-linecap="round" stroke-linejoin="round"/>
<path d="M21.4999 2L11.8999 11.6" stroke="#333333" stroke-width="1.5" stroke-linecap="round" stroke-linejoin="round"/>
<path d="M21.4999 2L11.8999 11.6" stroke="black" stroke-opacity="0.2" stroke-width="1.5" stroke-linecap="round" stroke-linejoin="round"/>
<path d="M21.4999 2L11.8999 11.6" stroke="black" stroke-opacity="0.2" stroke-width="1.5" stroke-linecap="round" stroke-linejoin="round"/>
<path d="M21.4999 2L11.8999 11.6" stroke="black" stroke-opacity="0.2" stroke-width="1.5" stroke-linecap="round" stroke-linejoin="round"/>
<path d="M8 21C11.0376 21 13.5 18.5376 13.5 15.5C13.5 12.4624 11.0376 10 8 10C4.96243 10 2.5 12.4624 2.5 15.5C2.5 18.5376 4.96243 21 8 21Z" stroke="#333333" stroke-width="1.5" stroke-linecap="round" stroke-linejoin="round"/>
<path d="M8 21C11.0376 21 13.5 18.5376 13.5 15.5C13.5 12.4624 11.0376 10 8 10C4.96243 10 2.5 12.4624 2.5 15.5C2.5 18.5376 4.96243 21 8 21Z" stroke="black" stroke-opacity="0.2" stroke-width="1.5" stroke-linecap="round" stroke-linejoin="round"/>
<path d="M8 21C11.0376 21 13.5 18.5376 13.5 15.5C13.5 12.4624 11.0376 10 8 10C4.96243 10 2.5 12.4624 2.5 15.5C2.5 18.5376 4.96243 21 8 21Z" stroke="black" stroke-opacity="0.2" stroke-width="1.5" stroke-linecap="round" stroke-linejoin="round"/>
<path d="M8 21C11.0376 21 13.5 18.5376 13.5 15.5C13.5 12.4624 11.0376 10 8 10C4.96243 10 2.5 12.4624 2.5 15.5C2.5 18.5376 4.96243 21 8 21Z" stroke="black" stroke-opacity="0.2" stroke-width="1.5" stroke-linecap="round" stroke-linejoin="round"/>
</svg>
