<svg width="25" height="24" viewBox="0 0 25 24" fill="none" xmlns="http://www.w3.org/2000/svg">
<path d="M16.1861 15C15.63 17.6299 14.3538 20.0534 12.5001 22C9.93232 19.3038 8.50008 15.7233 8.50008 12C8.50008 8.27674 9.93232 4.69615 12.5001 2C10.6519 2.00048 8.8401 2.51311 7.26567 3.48098C5.69125 4.44885 4.41583 5.8341 3.58102 7.48294C2.74621 9.13178 2.38466 10.9797 2.5365 12.8216C2.68834 14.6635 3.34764 16.4273 4.4412 17.9171C5.53477 19.407 7.01982 20.5647 8.73149 21.2616C10.4432 21.9586 12.3145 22.1676 14.1378 21.8654C15.961 21.5632 17.6649 20.7617 19.0602 19.5498C20.4555 18.3379 21.4876 16.763 22.0421 15" stroke="#333333" stroke-width="1.5" stroke-linecap="round" stroke-linejoin="round"/>
<path d="M16.1861 15C15.63 17.6299 14.3538 20.0534 12.5001 22C9.93232 19.3038 8.50008 15.7233 8.50008 12C8.50008 8.27674 9.93232 4.69615 12.5001 2C10.6519 2.00048 8.8401 2.51311 7.26567 3.48098C5.69125 4.44885 4.41583 5.8341 3.58102 7.48294C2.74621 9.13178 2.38466 10.9797 2.5365 12.8216C2.68834 14.6635 3.34764 16.4273 4.4412 17.9171C5.53477 19.407 7.01982 20.5647 8.73149 21.2616C10.4432 21.9586 12.3145 22.1676 14.1378 21.8654C15.961 21.5632 17.6649 20.7617 19.0602 19.5498C20.4555 18.3379 21.4876 16.763 22.0421 15" stroke="black" stroke-opacity="0.2" stroke-width="1.5" stroke-linecap="round" stroke-linejoin="round"/>
<path d="M16.1861 15C15.63 17.6299 14.3538 20.0534 12.5001 22C9.93232 19.3038 8.50008 15.7233 8.50008 12C8.50008 8.27674 9.93232 4.69615 12.5001 2C10.6519 2.00048 8.8401 2.51311 7.26567 3.48098C5.69125 4.44885 4.41583 5.8341 3.58102 7.48294C2.74621 9.13178 2.38466 10.9797 2.5365 12.8216C2.68834 14.6635 3.34764 16.4273 4.4412 17.9171C5.53477 19.407 7.01982 20.5647 8.73149 21.2616C10.4432 21.9586 12.3145 22.1676 14.1378 21.8654C15.961 21.5632 17.6649 20.7617 19.0602 19.5498C20.4555 18.3379 21.4876 16.763 22.0421 15" stroke="black" stroke-opacity="0.2" stroke-width="1.5" stroke-linecap="round" stroke-linejoin="round"/>
<path d="M16.1861 15C15.63 17.6299 14.3538 20.0534 12.5001 22C9.93232 19.3038 8.50008 15.7233 8.50008 12C8.50008 8.27674 9.93232 4.69615 12.5001 2C10.6519 2.00048 8.8401 2.51311 7.26567 3.48098C5.69125 4.44885 4.41583 5.8341 3.58102 7.48294C2.74621 9.13178 2.38466 10.9797 2.5365 12.8216C2.68834 14.6635 3.34764 16.4273 4.4412 17.9171C5.53477 19.407 7.01982 20.5647 8.73149 21.2616C10.4432 21.9586 12.3145 22.1676 14.1378 21.8654C15.961 21.5632 17.6649 20.7617 19.0602 19.5498C20.4555 18.3379 21.4876 16.763 22.0421 15" stroke="black" stroke-opacity="0.2" stroke-width="1.5" stroke-linecap="round" stroke-linejoin="round"/>
<path d="M2.5 12H11" stroke="#333333" stroke-width="1.5" stroke-linecap="round" stroke-linejoin="round"/>
<path d="M2.5 12H11" stroke="black" stroke-opacity="0.2" stroke-width="1.5" stroke-linecap="round" stroke-linejoin="round"/>
<path d="M2.5 12H11" stroke="black" stroke-opacity="0.2" stroke-width="1.5" stroke-linecap="round" stroke-linejoin="round"/>
<path d="M2.5 12H11" stroke="black" stroke-opacity="0.2" stroke-width="1.5" stroke-linecap="round" stroke-linejoin="round"/>
<path d="M20.5 6V4C20.5 3.46957 20.2893 2.96086 19.9142 2.58579C19.5391 2.21071 19.0304 2 18.5 2C17.9696 2 17.4609 2.21071 17.0858 2.58579C16.7107 2.96086 16.5 3.46957 16.5 4V6" stroke="#333333" stroke-width="1.5" stroke-linecap="round" stroke-linejoin="round"/>
<path d="M20.5 6V4C20.5 3.46957 20.2893 2.96086 19.9142 2.58579C19.5391 2.21071 19.0304 2 18.5 2C17.9696 2 17.4609 2.21071 17.0858 2.58579C16.7107 2.96086 16.5 3.46957 16.5 4V6" stroke="black" stroke-opacity="0.2" stroke-width="1.5" stroke-linecap="round" stroke-linejoin="round"/>
<path d="M20.5 6V4C20.5 3.46957 20.2893 2.96086 19.9142 2.58579C19.5391 2.21071 19.0304 2 18.5 2C17.9696 2 17.4609 2.21071 17.0858 2.58579C16.7107 2.96086 16.5 3.46957 16.5 4V6" stroke="black" stroke-opacity="0.2" stroke-width="1.5" stroke-linecap="round" stroke-linejoin="round"/>
<path d="M20.5 6V4C20.5 3.46957 20.2893 2.96086 19.9142 2.58579C19.5391 2.21071 19.0304 2 18.5 2C17.9696 2 17.4609 2.21071 17.0858 2.58579C16.7107 2.96086 16.5 3.46957 16.5 4V6" stroke="black" stroke-opacity="0.2" stroke-width="1.5" stroke-linecap="round" stroke-linejoin="round"/>
<path d="M21.5 6H15.5C14.9477 6 14.5 6.44772 14.5 7V10C14.5 10.5523 14.9477 11 15.5 11H21.5C22.0523 11 22.5 10.5523 22.5 10V7C22.5 6.44772 22.0523 6 21.5 6Z" stroke="#333333" stroke-width="1.5" stroke-linecap="round" stroke-linejoin="round"/>
<path d="M21.5 6H15.5C14.9477 6 14.5 6.44772 14.5 7V10C14.5 10.5523 14.9477 11 15.5 11H21.5C22.0523 11 22.5 10.5523 22.5 10V7C22.5 6.44772 22.0523 6 21.5 6Z" stroke="black" stroke-opacity="0.2" stroke-width="1.5" stroke-linecap="round" stroke-linejoin="round"/>
<path d="M21.5 6H15.5C14.9477 6 14.5 6.44772 14.5 7V10C14.5 10.5523 14.9477 11 15.5 11H21.5C22.0523 11 22.5 10.5523 22.5 10V7C22.5 6.44772 22.0523 6 21.5 6Z" stroke="black" stroke-opacity="0.2" stroke-width="1.5" stroke-linecap="round" stroke-linejoin="round"/>
<path d="M21.5 6H15.5C14.9477 6 14.5 6.44772 14.5 7V10C14.5 10.5523 14.9477 11 15.5 11H21.5C22.0523 11 22.5 10.5523 22.5 10V7C22.5 6.44772 22.0523 6 21.5 6Z" stroke="black" stroke-opacity="0.2" stroke-width="1.5" stroke-linecap="round" stroke-linejoin="round"/>
</svg>
