<svg width="16" height="17" viewBox="0 0 16 17" fill="none" xmlns="http://www.w3.org/2000/svg">
<path d="M8.66609 9.66522C8.4634 9.78224 8.23347 9.84385 7.99942 9.84385C7.76538 9.84385 7.53545 9.78224 7.33276 9.66522L1.66609 6.41855C1.56349 6.36041 1.47815 6.27609 1.41878 6.17419C1.35941 6.0723 1.32812 5.95648 1.32813 5.83855C1.32812 5.72062 1.35941 5.6048 1.41878 5.50291C1.47815 5.40102 1.56349 5.3167 1.66609 5.25855L7.33276 2.01188C7.53545 1.89486 7.76538 1.83325 7.99942 1.83325C8.23347 1.83325 8.4634 1.89486 8.66609 2.01188L14.3328 5.25855C14.4354 5.3167 14.5207 5.40102 14.5801 5.50291C14.6394 5.6048 14.6707 5.72062 14.6707 5.83855C14.6707 5.95648 14.6394 6.0723 14.5801 6.17419C14.5207 6.27609 14.4354 6.36041 14.3328 6.41855L8.66609 9.66522Z" stroke="#333333" stroke-linecap="round" stroke-linejoin="round"/>
<path d="M8.66609 9.66522C8.4634 9.78224 8.23347 9.84385 7.99942 9.84385C7.76538 9.84385 7.53545 9.78224 7.33276 9.66522L1.66609 6.41855C1.56349 6.36041 1.47815 6.27609 1.41878 6.17419C1.35941 6.0723 1.32812 5.95648 1.32813 5.83855C1.32812 5.72062 1.35941 5.6048 1.41878 5.50291C1.47815 5.40102 1.56349 5.3167 1.66609 5.25855L7.33276 2.01188C7.53545 1.89486 7.76538 1.83325 7.99942 1.83325C8.23347 1.83325 8.4634 1.89486 8.66609 2.01188L14.3328 5.25855C14.4354 5.3167 14.5207 5.40102 14.5801 5.50291C14.6394 5.6048 14.6707 5.72062 14.6707 5.83855C14.6707 5.95648 14.6394 6.0723 14.5801 6.17419C14.5207 6.27609 14.4354 6.36041 14.3328 6.41855L8.66609 9.66522Z" stroke="black" stroke-opacity="0.2" stroke-linecap="round" stroke-linejoin="round"/>
<path d="M8.66609 9.66522C8.4634 9.78224 8.23347 9.84385 7.99942 9.84385C7.76538 9.84385 7.53545 9.78224 7.33276 9.66522L1.66609 6.41855C1.56349 6.36041 1.47815 6.27609 1.41878 6.17419C1.35941 6.0723 1.32812 5.95648 1.32813 5.83855C1.32812 5.72062 1.35941 5.6048 1.41878 5.50291C1.47815 5.40102 1.56349 5.3167 1.66609 5.25855L7.33276 2.01188C7.53545 1.89486 7.76538 1.83325 7.99942 1.83325C8.23347 1.83325 8.4634 1.89486 8.66609 2.01188L14.3328 5.25855C14.4354 5.3167 14.5207 5.40102 14.5801 5.50291C14.6394 5.6048 14.6707 5.72062 14.6707 5.83855C14.6707 5.95648 14.6394 6.0723 14.5801 6.17419C14.5207 6.27609 14.4354 6.36041 14.3328 6.41855L8.66609 9.66522Z" stroke="black" stroke-opacity="0.2" stroke-linecap="round" stroke-linejoin="round"/>
<path d="M8.66609 9.66522C8.4634 9.78224 8.23347 9.84385 7.99942 9.84385C7.76538 9.84385 7.53545 9.78224 7.33276 9.66522L1.66609 6.41855C1.56349 6.36041 1.47815 6.27609 1.41878 6.17419C1.35941 6.0723 1.32812 5.95648 1.32813 5.83855C1.32812 5.72062 1.35941 5.6048 1.41878 5.50291C1.47815 5.40102 1.56349 5.3167 1.66609 5.25855L7.33276 2.01188C7.53545 1.89486 7.76538 1.83325 7.99942 1.83325C8.23347 1.83325 8.4634 1.89486 8.66609 2.01188L14.3328 5.25855C14.4354 5.3167 14.5207 5.40102 14.5801 5.50291C14.6394 5.6048 14.6707 5.72062 14.6707 5.83855C14.6707 5.95648 14.6394 6.0723 14.5801 6.17419C14.5207 6.27609 14.4354 6.36041 14.3328 6.41855L8.66609 9.66522Z" stroke="black" stroke-opacity="0.2" stroke-linecap="round" stroke-linejoin="round"/>
<path d="M13.3328 10.0208L14.3328 10.5841C14.4354 10.6422 14.5207 10.7266 14.5801 10.8284C14.6394 10.9303 14.6707 11.0462 14.6707 11.1641C14.6707 11.282 14.6394 11.3978 14.5801 11.4997C14.5207 11.6016 14.4354 11.6859 14.3328 11.7441L8.66609 14.9908C8.4634 15.1078 8.23347 15.1694 7.99942 15.1694C7.76538 15.1694 7.53545 15.1078 7.33276 14.9908L1.66609 11.7441C1.56349 11.6859 1.47815 11.6016 1.41878 11.4997C1.35941 11.3978 1.32813 11.282 1.32812 11.1641C1.32812 11.0462 1.35941 10.9303 1.41878 10.8284C1.47815 10.7266 1.56349 10.6422 1.66609 10.5841L2.66609 10.0208" stroke="#333333" stroke-linecap="round" stroke-linejoin="round"/>
<path d="M13.3328 10.0208L14.3328 10.5841C14.4354 10.6422 14.5207 10.7266 14.5801 10.8284C14.6394 10.9303 14.6707 11.0462 14.6707 11.1641C14.6707 11.282 14.6394 11.3978 14.5801 11.4997C14.5207 11.6016 14.4354 11.6859 14.3328 11.7441L8.66609 14.9908C8.4634 15.1078 8.23347 15.1694 7.99942 15.1694C7.76538 15.1694 7.53545 15.1078 7.33276 14.9908L1.66609 11.7441C1.56349 11.6859 1.47815 11.6016 1.41878 11.4997C1.35941 11.3978 1.32813 11.282 1.32812 11.1641C1.32812 11.0462 1.35941 10.9303 1.41878 10.8284C1.47815 10.7266 1.56349 10.6422 1.66609 10.5841L2.66609 10.0208" stroke="black" stroke-opacity="0.2" stroke-linecap="round" stroke-linejoin="round"/>
<path d="M13.3328 10.0208L14.3328 10.5841C14.4354 10.6422 14.5207 10.7266 14.5801 10.8284C14.6394 10.9303 14.6707 11.0462 14.6707 11.1641C14.6707 11.282 14.6394 11.3978 14.5801 11.4997C14.5207 11.6016 14.4354 11.6859 14.3328 11.7441L8.66609 14.9908C8.4634 15.1078 8.23347 15.1694 7.99942 15.1694C7.76538 15.1694 7.53545 15.1078 7.33276 14.9908L1.66609 11.7441C1.56349 11.6859 1.47815 11.6016 1.41878 11.4997C1.35941 11.3978 1.32813 11.282 1.32812 11.1641C1.32812 11.0462 1.35941 10.9303 1.41878 10.8284C1.47815 10.7266 1.56349 10.6422 1.66609 10.5841L2.66609 10.0208" stroke="black" stroke-opacity="0.2" stroke-linecap="round" stroke-linejoin="round"/>
<path d="M13.3328 10.0208L14.3328 10.5841C14.4354 10.6422 14.5207 10.7266 14.5801 10.8284C14.6394 10.9303 14.6707 11.0462 14.6707 11.1641C14.6707 11.282 14.6394 11.3978 14.5801 11.4997C14.5207 11.6016 14.4354 11.6859 14.3328 11.7441L8.66609 14.9908C8.4634 15.1078 8.23347 15.1694 7.99942 15.1694C7.76538 15.1694 7.53545 15.1078 7.33276 14.9908L1.66609 11.7441C1.56349 11.6859 1.47815 11.6016 1.41878 11.4997C1.35941 11.3978 1.32813 11.282 1.32812 11.1641C1.32812 11.0462 1.35941 10.9303 1.41878 10.8284C1.47815 10.7266 1.56349 10.6422 1.66609 10.5841L2.66609 10.0208" stroke="black" stroke-opacity="0.2" stroke-linecap="round" stroke-linejoin="round"/>
</svg>
