<svg width="24" height="24" viewBox="0 0 24 24" fill="none" xmlns="http://www.w3.org/2000/svg">
<path d="M3.11235 1.89256C3.97644 2.12218 4.72846 2.49889 5.52468 2.90069C5.78737 3.03105 5.78737 3.03105 6.05537 3.16404C6.63259 3.45101 7.20869 3.74015 7.78475 4.02945C8.18577 4.2297 8.58682 4.42987 8.98793 4.62995C9.82753 5.0492 10.6666 5.46953 11.5053 5.89062C12.5816 6.43092 13.6593 6.96852 14.7373 7.50531C15.5653 7.91793 16.3925 8.33197 17.2195 8.74645C17.6167 8.9453 18.0141 9.1437 18.4118 9.34165C18.9664 9.61803 19.5201 9.8963 20.0735 10.1751C20.3213 10.2979 20.3213 10.2979 20.5741 10.4231C20.7245 10.4993 20.8748 10.5756 21.0297 10.6541C21.1606 10.7197 21.2916 10.7853 21.4265 10.8529C21.7506 11.0622 21.7506 11.0622 22.1256 11.6247C22.1533 12.1665 22.1533 12.1665 21.9381 12.7497C21.46 13.1362 20.9234 13.3816 20.3695 13.6431C20.2093 13.7228 20.0491 13.8026 19.8841 13.8848C19.5483 14.0518 19.2117 14.2172 18.8744 14.3811C18.2612 14.6805 17.6546 14.992 17.048 15.3046C15.4621 16.1208 13.8673 16.9201 12.274 17.722C11.4063 18.1588 10.5392 18.5967 9.67344 19.0375C8.82572 19.469 7.97657 19.8976 7.12632 20.3241C6.80488 20.486 6.48395 20.6489 6.16357 20.8128C5.71831 21.0404 5.27131 21.2642 4.82371 21.4872C4.62778 21.589 4.62778 21.589 4.42789 21.6929C3.63132 22.0836 3.10268 22.2274 2.25057 21.9372C1.87557 21.3747 1.87557 21.3747 1.91141 20.7887C2.08524 19.956 2.33313 19.1769 2.61459 18.3754C2.66842 18.2191 2.72226 18.0628 2.77773 17.9018C2.94856 17.4067 3.12102 16.9122 3.29354 16.4176C3.41023 16.0804 3.5268 15.7431 3.64327 15.4058C3.9278 14.5825 4.21379 13.7597 4.50057 12.9372C4.7305 12.9344 4.96043 12.9317 5.19733 12.9289C6.04965 12.918 6.90188 12.9035 7.75413 12.888C8.12313 12.8817 8.49215 12.8765 8.86118 12.8722C9.39137 12.8659 9.92138 12.8561 10.4515 12.8456C10.6168 12.8444 10.782 12.8432 10.9523 12.842C11.1831 12.8364 11.1831 12.8364 11.4185 12.8307C11.5538 12.8286 11.6892 12.8266 11.8286 12.8244C12.291 12.7283 12.466 12.5581 12.7506 12.1872C12.7363 11.7863 12.7363 11.7863 12.5631 11.4372C11.9192 11.1152 11.1791 11.2037 10.4698 11.1903C10.2147 11.1845 10.2147 11.1845 9.95435 11.1785C9.40988 11.1662 8.86539 11.1552 8.32088 11.1442C7.95223 11.1361 7.58358 11.1279 7.21493 11.1197C6.31016 11.0996 5.40537 11.0806 4.50057 11.0622C4.12 9.98907 3.74283 8.91487 3.36875 7.8395C3.24108 7.47401 3.11248 7.10883 2.98295 6.74398C2.79669 6.21886 2.61378 5.69267 2.43148 5.16616C2.37309 5.00382 2.31471 4.84147 2.25455 4.6742C1.95881 3.80881 1.75192 3.15082 2.06307 2.24966C2.62557 1.87466 2.62557 1.87466 3.11235 1.89256Z" fill="#836AB1"/>
</svg>
