<svg width="25" height="24" viewBox="0 0 25 24" fill="none" xmlns="http://www.w3.org/2000/svg">
<path d="M12.5 3V2" stroke="#333333" stroke-width="2" stroke-linecap="round" stroke-linejoin="round"/>
<path d="M12.5 3V2" stroke="black" stroke-opacity="0.2" stroke-width="2" stroke-linecap="round" stroke-linejoin="round"/>
<path d="M12.5 3V2" stroke="black" stroke-opacity="0.2" stroke-width="2" stroke-linecap="round" stroke-linejoin="round"/>
<path d="M12.5 3V2" stroke="black" stroke-opacity="0.2" stroke-width="2" stroke-linecap="round" stroke-linejoin="round"/>
<path d="M15.9 17.3997L19.1 14.5997C19.2904 14.4159 19.5152 14.2713 19.7615 14.1744C20.0077 14.0774 20.2707 14.0298 20.5354 14.0345C20.8 14.0391 21.0611 14.0959 21.3039 14.2014C21.5466 14.307 21.7662 14.4593 21.95 14.6497C22.1339 14.8402 22.2784 15.0649 22.3754 15.3112C22.4724 15.5575 22.5199 15.8205 22.5153 16.0851C22.5106 16.3497 22.4539 16.6109 22.3483 16.8536C22.2428 17.0963 22.0904 17.3159 21.9 17.4997L18.3 20.7997C17.6 21.5997 16.6 21.9997 15.5 21.9997H11.5C10.4 21.9997 9.4 21.5997 8.7 20.7997L7.398 19.3357C7.30426 19.2302 7.18923 19.1457 7.06048 19.0878C6.93173 19.0298 6.79218 18.9998 6.651 18.9997H5.5" stroke="#333333" stroke-width="1.5" stroke-linecap="round" stroke-linejoin="round"/>
<path d="M15.9 17.3997L19.1 14.5997C19.2904 14.4159 19.5152 14.2713 19.7615 14.1744C20.0077 14.0774 20.2707 14.0298 20.5354 14.0345C20.8 14.0391 21.0611 14.0959 21.3039 14.2014C21.5466 14.307 21.7662 14.4593 21.95 14.6497C22.1339 14.8402 22.2784 15.0649 22.3754 15.3112C22.4724 15.5575 22.5199 15.8205 22.5153 16.0851C22.5106 16.3497 22.4539 16.6109 22.3483 16.8536C22.2428 17.0963 22.0904 17.3159 21.9 17.4997L18.3 20.7997C17.6 21.5997 16.6 21.9997 15.5 21.9997H11.5C10.4 21.9997 9.4 21.5997 8.7 20.7997L7.398 19.3357C7.30426 19.2302 7.18923 19.1457 7.06048 19.0878C6.93173 19.0298 6.79218 18.9998 6.651 18.9997H5.5" stroke="black" stroke-opacity="0.2" stroke-width="1.5" stroke-linecap="round" stroke-linejoin="round"/>
<path d="M15.9 17.3997L19.1 14.5997C19.2904 14.4159 19.5152 14.2713 19.7615 14.1744C20.0077 14.0774 20.2707 14.0298 20.5354 14.0345C20.8 14.0391 21.0611 14.0959 21.3039 14.2014C21.5466 14.307 21.7662 14.4593 21.95 14.6497C22.1339 14.8402 22.2784 15.0649 22.3754 15.3112C22.4724 15.5575 22.5199 15.8205 22.5153 16.0851C22.5106 16.3497 22.4539 16.6109 22.3483 16.8536C22.2428 17.0963 22.0904 17.3159 21.9 17.4997L18.3 20.7997C17.6 21.5997 16.6 21.9997 15.5 21.9997H11.5C10.4 21.9997 9.4 21.5997 8.7 20.7997L7.398 19.3357C7.30426 19.2302 7.18923 19.1457 7.06048 19.0878C6.93173 19.0298 6.79218 18.9998 6.651 18.9997H5.5" stroke="black" stroke-opacity="0.2" stroke-width="1.5" stroke-linecap="round" stroke-linejoin="round"/>
<path d="M15.9 17.3997L19.1 14.5997C19.2904 14.4159 19.5152 14.2713 19.7615 14.1744C20.0077 14.0774 20.2707 14.0298 20.5354 14.0345C20.8 14.0391 21.0611 14.0959 21.3039 14.2014C21.5466 14.307 21.7662 14.4593 21.95 14.6497C22.1339 14.8402 22.2784 15.0649 22.3754 15.3112C22.4724 15.5575 22.5199 15.8205 22.5153 16.0851C22.5106 16.3497 22.4539 16.6109 22.3483 16.8536C22.2428 17.0963 22.0904 17.3159 21.9 17.4997L18.3 20.7997C17.6 21.5997 16.6 21.9997 15.5 21.9997H11.5C10.4 21.9997 9.4 21.5997 8.7 20.7997L7.398 19.3357C7.30426 19.2302 7.18923 19.1457 7.06048 19.0878C6.93173 19.0298 6.79218 18.9998 6.651 18.9997H5.5" stroke="black" stroke-opacity="0.2" stroke-width="1.5" stroke-linecap="round" stroke-linejoin="round"/>
<path d="M2.5 14H14.5C15.0304 14 15.5391 14.2107 15.9142 14.5858C16.2893 14.9609 16.5 15.4696 16.5 16C16.5 16.5304 16.2893 17.0391 15.9142 17.4142C15.5391 17.7893 15.0304 18 14.5 18H12.5" stroke="#333333" stroke-width="1.5" stroke-linecap="round" stroke-linejoin="round"/>
<path d="M2.5 14H14.5C15.0304 14 15.5391 14.2107 15.9142 14.5858C16.2893 14.9609 16.5 15.4696 16.5 16C16.5 16.5304 16.2893 17.0391 15.9142 17.4142C15.5391 17.7893 15.0304 18 14.5 18H12.5" stroke="black" stroke-opacity="0.2" stroke-width="1.5" stroke-linecap="round" stroke-linejoin="round"/>
<path d="M2.5 14H14.5C15.0304 14 15.5391 14.2107 15.9142 14.5858C16.2893 14.9609 16.5 15.4696 16.5 16C16.5 16.5304 16.2893 17.0391 15.9142 17.4142C15.5391 17.7893 15.0304 18 14.5 18H12.5" stroke="black" stroke-opacity="0.2" stroke-width="1.5" stroke-linecap="round" stroke-linejoin="round"/>
<path d="M2.5 14H14.5C15.0304 14 15.5391 14.2107 15.9142 14.5858C16.2893 14.9609 16.5 15.4696 16.5 16C16.5 16.5304 16.2893 17.0391 15.9142 17.4142C15.5391 17.7893 15.0304 18 14.5 18H12.5" stroke="black" stroke-opacity="0.2" stroke-width="1.5" stroke-linecap="round" stroke-linejoin="round"/>
<path d="M4.5 10H20.5" stroke="#333333" stroke-width="1.5" stroke-linecap="round" stroke-linejoin="round"/>
<path d="M4.5 10H20.5" stroke="black" stroke-opacity="0.2" stroke-width="1.5" stroke-linecap="round" stroke-linejoin="round"/>
<path d="M4.5 10H20.5" stroke="black" stroke-opacity="0.2" stroke-width="1.5" stroke-linecap="round" stroke-linejoin="round"/>
<path d="M4.5 10H20.5" stroke="black" stroke-opacity="0.2" stroke-width="1.5" stroke-linecap="round" stroke-linejoin="round"/>
<path d="M5.5 10C5.5 8.14348 6.2375 6.36301 7.55025 5.05025C8.86301 3.7375 10.6435 3 12.5 3C14.3565 3 16.137 3.7375 17.4497 5.05025C18.7625 6.36301 19.5 8.14348 19.5 10" stroke="#333333" stroke-width="1.5" stroke-linecap="round" stroke-linejoin="round"/>
<path d="M5.5 10C5.5 8.14348 6.2375 6.36301 7.55025 5.05025C8.86301 3.7375 10.6435 3 12.5 3C14.3565 3 16.137 3.7375 17.4497 5.05025C18.7625 6.36301 19.5 8.14348 19.5 10" stroke="black" stroke-opacity="0.2" stroke-width="1.5" stroke-linecap="round" stroke-linejoin="round"/>
<path d="M5.5 10C5.5 8.14348 6.2375 6.36301 7.55025 5.05025C8.86301 3.7375 10.6435 3 12.5 3C14.3565 3 16.137 3.7375 17.4497 5.05025C18.7625 6.36301 19.5 8.14348 19.5 10" stroke="black" stroke-opacity="0.2" stroke-width="1.5" stroke-linecap="round" stroke-linejoin="round"/>
<path d="M5.5 10C5.5 8.14348 6.2375 6.36301 7.55025 5.05025C8.86301 3.7375 10.6435 3 12.5 3C14.3565 3 16.137 3.7375 17.4497 5.05025C18.7625 6.36301 19.5 8.14348 19.5 10" stroke="black" stroke-opacity="0.2" stroke-width="1.5" stroke-linecap="round" stroke-linejoin="round"/>
<path d="M5.5 14V20C5.5 20.2652 5.39464 20.5196 5.20711 20.7071C5.01957 20.8946 4.76522 21 4.5 21H2.5" stroke="#333333" stroke-width="1.5" stroke-linecap="round" stroke-linejoin="round"/>
<path d="M5.5 14V20C5.5 20.2652 5.39464 20.5196 5.20711 20.7071C5.01957 20.8946 4.76522 21 4.5 21H2.5" stroke="black" stroke-opacity="0.2" stroke-width="1.5" stroke-linecap="round" stroke-linejoin="round"/>
<path d="M5.5 14V20C5.5 20.2652 5.39464 20.5196 5.20711 20.7071C5.01957 20.8946 4.76522 21 4.5 21H2.5" stroke="black" stroke-opacity="0.2" stroke-width="1.5" stroke-linecap="round" stroke-linejoin="round"/>
<path d="M5.5 14V20C5.5 20.2652 5.39464 20.5196 5.20711 20.7071C5.01957 20.8946 4.76522 21 4.5 21H2.5" stroke="black" stroke-opacity="0.2" stroke-width="1.5" stroke-linecap="round" stroke-linejoin="round"/>
</svg>
