<svg width="25" height="24" viewBox="0 0 25 24" fill="none" xmlns="http://www.w3.org/2000/svg">
<path d="M12.5 14V18" stroke="#333333" stroke-width="1.5" stroke-linecap="round" stroke-linejoin="round"/>
<path d="M12.5 14V18" stroke="black" stroke-opacity="0.2" stroke-width="1.5" stroke-linecap="round" stroke-linejoin="round"/>
<path d="M12.5 14V18" stroke="black" stroke-opacity="0.2" stroke-width="1.5" stroke-linecap="round" stroke-linejoin="round"/>
<path d="M12.5 14V18" stroke="black" stroke-opacity="0.2" stroke-width="1.5" stroke-linecap="round" stroke-linejoin="round"/>
<path d="M14.672 2C15.2024 2.00011 15.711 2.2109 16.086 2.586L19.914 6.414C20.2891 6.78899 20.4999 7.29761 20.5 7.828V20C20.5 20.5304 20.2893 21.0391 19.9142 21.4142C19.5391 21.7893 19.0304 22 18.5 22H6.5C5.96957 22 5.46086 21.7893 5.08579 21.4142C4.71071 21.0391 4.5 20.5304 4.5 20V4C4.5 3.46957 4.71071 2.96086 5.08579 2.58579C5.46086 2.21071 5.96957 2 6.5 2H14.672Z" stroke="#333333" stroke-width="1.5" stroke-linecap="round" stroke-linejoin="round"/>
<path d="M14.672 2C15.2024 2.00011 15.711 2.2109 16.086 2.586L19.914 6.414C20.2891 6.78899 20.4999 7.29761 20.5 7.828V20C20.5 20.5304 20.2893 21.0391 19.9142 21.4142C19.5391 21.7893 19.0304 22 18.5 22H6.5C5.96957 22 5.46086 21.7893 5.08579 21.4142C4.71071 21.0391 4.5 20.5304 4.5 20V4C4.5 3.46957 4.71071 2.96086 5.08579 2.58579C5.46086 2.21071 5.96957 2 6.5 2H14.672Z" stroke="black" stroke-opacity="0.2" stroke-width="1.5" stroke-linecap="round" stroke-linejoin="round"/>
<path d="M14.672 2C15.2024 2.00011 15.711 2.2109 16.086 2.586L19.914 6.414C20.2891 6.78899 20.4999 7.29761 20.5 7.828V20C20.5 20.5304 20.2893 21.0391 19.9142 21.4142C19.5391 21.7893 19.0304 22 18.5 22H6.5C5.96957 22 5.46086 21.7893 5.08579 21.4142C4.71071 21.0391 4.5 20.5304 4.5 20V4C4.5 3.46957 4.71071 2.96086 5.08579 2.58579C5.46086 2.21071 5.96957 2 6.5 2H14.672Z" stroke="black" stroke-opacity="0.2" stroke-width="1.5" stroke-linecap="round" stroke-linejoin="round"/>
<path d="M14.672 2C15.2024 2.00011 15.711 2.2109 16.086 2.586L19.914 6.414C20.2891 6.78899 20.4999 7.29761 20.5 7.828V20C20.5 20.5304 20.2893 21.0391 19.9142 21.4142C19.5391 21.7893 19.0304 22 18.5 22H6.5C5.96957 22 5.46086 21.7893 5.08579 21.4142C4.71071 21.0391 4.5 20.5304 4.5 20V4C4.5 3.46957 4.71071 2.96086 5.08579 2.58579C5.46086 2.21071 5.96957 2 6.5 2H14.672Z" stroke="black" stroke-opacity="0.2" stroke-width="1.5" stroke-linecap="round" stroke-linejoin="round"/>
<path d="M8.5 14H16.5" stroke="#333333" stroke-width="1.5" stroke-linecap="round" stroke-linejoin="round"/>
<path d="M8.5 14H16.5" stroke="black" stroke-opacity="0.2" stroke-width="1.5" stroke-linecap="round" stroke-linejoin="round"/>
<path d="M8.5 14H16.5" stroke="black" stroke-opacity="0.2" stroke-width="1.5" stroke-linecap="round" stroke-linejoin="round"/>
<path d="M8.5 14H16.5" stroke="black" stroke-opacity="0.2" stroke-width="1.5" stroke-linecap="round" stroke-linejoin="round"/>
<path d="M15.5 10H9.5C8.94772 10 8.5 10.4477 8.5 11V17C8.5 17.5523 8.94772 18 9.5 18H15.5C16.0523 18 16.5 17.5523 16.5 17V11C16.5 10.4477 16.0523 10 15.5 10Z" stroke="#333333" stroke-width="1.5" stroke-linecap="round" stroke-linejoin="round"/>
<path d="M15.5 10H9.5C8.94772 10 8.5 10.4477 8.5 11V17C8.5 17.5523 8.94772 18 9.5 18H15.5C16.0523 18 16.5 17.5523 16.5 17V11C16.5 10.4477 16.0523 10 15.5 10Z" stroke="black" stroke-opacity="0.2" stroke-width="1.5" stroke-linecap="round" stroke-linejoin="round"/>
<path d="M15.5 10H9.5C8.94772 10 8.5 10.4477 8.5 11V17C8.5 17.5523 8.94772 18 9.5 18H15.5C16.0523 18 16.5 17.5523 16.5 17V11C16.5 10.4477 16.0523 10 15.5 10Z" stroke="black" stroke-opacity="0.2" stroke-width="1.5" stroke-linecap="round" stroke-linejoin="round"/>
<path d="M15.5 10H9.5C8.94772 10 8.5 10.4477 8.5 11V17C8.5 17.5523 8.94772 18 9.5 18H15.5C16.0523 18 16.5 17.5523 16.5 17V11C16.5 10.4477 16.0523 10 15.5 10Z" stroke="black" stroke-opacity="0.2" stroke-width="1.5" stroke-linecap="round" stroke-linejoin="round"/>
</svg>
