<svg width="25" height="24" viewBox="0 0 25 24" fill="none" xmlns="http://www.w3.org/2000/svg">
<path d="M10.1708 4.13615C10.2259 3.55649 10.4951 3.0182 10.9259 2.62643C11.3567 2.23467 11.918 2.01758 12.5003 2.01758C13.0826 2.01758 13.6439 2.23467 14.0747 2.62643C14.5055 3.0182 14.7747 3.55649 14.8298 4.13615C14.8629 4.51061 14.9858 4.87157 15.188 5.18849C15.3901 5.50541 15.6657 5.76896 15.9913 5.95683C16.3169 6.1447 16.683 6.25135 17.0585 6.26777C17.4341 6.28419 17.8081 6.20989 18.1488 6.05115C18.6779 5.81093 19.2775 5.77617 19.8308 5.95364C20.3841 6.1311 20.8516 6.5081 21.1423 7.01126C21.433 7.51441 21.5261 8.10772 21.4035 8.67572C21.2808 9.24372 20.9512 9.74577 20.4788 10.0842C20.1712 10.3 19.9201 10.5868 19.7467 10.9202C19.5734 11.2536 19.4829 11.6239 19.4829 11.9997C19.4829 12.3754 19.5734 12.7457 19.7467 13.0791C19.9201 13.4125 20.1712 13.6993 20.4788 13.9152C20.9512 14.2535 21.2808 14.7556 21.4035 15.3236C21.5261 15.8916 21.433 16.4849 21.1423 16.988C20.8516 17.4912 20.3841 17.8682 19.8308 18.0457C19.2775 18.2231 18.6779 18.1884 18.1488 17.9482C17.8081 17.7894 17.4341 17.7151 17.0585 17.7315C16.683 17.7479 16.3169 17.8546 15.9913 18.0425C15.6657 18.2303 15.3901 18.4939 15.188 18.8108C14.9858 19.1277 14.8629 19.4887 14.8298 19.8632C14.7747 20.4428 14.5055 20.9811 14.0747 21.3729C13.6439 21.7646 13.0826 21.9817 12.5003 21.9817C11.918 21.9817 11.3567 21.7646 10.9259 21.3729C10.4951 20.9811 10.2259 20.4428 10.1708 19.8632C10.1378 19.4886 10.0149 19.1275 9.81268 18.8104C9.61045 18.4934 9.33479 18.2298 9.00905 18.0419C8.68331 17.854 8.31708 17.7474 7.9414 17.7311C7.56571 17.7147 7.19162 17.7892 6.85082 17.9482C6.32171 18.1884 5.72214 18.2231 5.16882 18.0457C4.61549 17.8682 4.14799 17.4912 3.8573 16.988C3.56661 16.4849 3.47353 15.8916 3.59618 15.3236C3.71882 14.7556 4.04842 14.2535 4.52082 13.9152C4.82844 13.6993 5.07955 13.4125 5.2529 13.0791C5.42626 12.7457 5.51677 12.3754 5.51677 11.9997C5.51677 11.6239 5.42626 11.2536 5.2529 10.9202C5.07955 10.5868 4.82844 10.3 4.52082 10.0842C4.04908 9.7456 3.72007 9.24375 3.59772 8.67613C3.47537 8.10852 3.56842 7.51569 3.8588 7.01286C4.14918 6.51004 4.61613 6.13313 5.16891 5.95539C5.72168 5.77766 6.3208 5.81179 6.84982 6.05115C7.19057 6.20989 7.56456 6.28419 7.94012 6.26777C8.31567 6.25135 8.68175 6.1447 9.00735 5.95683C9.33296 5.76896 9.60851 5.50541 9.81068 5.18849C10.0129 4.87157 10.1357 4.51061 10.1688 4.13615" stroke="#333333" stroke-width="1.5" stroke-linecap="round" stroke-linejoin="round"/>
<path d="M10.1708 4.13615C10.2259 3.55649 10.4951 3.0182 10.9259 2.62643C11.3567 2.23467 11.918 2.01758 12.5003 2.01758C13.0826 2.01758 13.6439 2.23467 14.0747 2.62643C14.5055 3.0182 14.7747 3.55649 14.8298 4.13615C14.8629 4.51061 14.9858 4.87157 15.188 5.18849C15.3901 5.50541 15.6657 5.76896 15.9913 5.95683C16.3169 6.1447 16.683 6.25135 17.0585 6.26777C17.4341 6.28419 17.8081 6.20989 18.1488 6.05115C18.6779 5.81093 19.2775 5.77617 19.8308 5.95364C20.3841 6.1311 20.8516 6.5081 21.1423 7.01126C21.433 7.51441 21.5261 8.10772 21.4035 8.67572C21.2808 9.24372 20.9512 9.74577 20.4788 10.0842C20.1712 10.3 19.9201 10.5868 19.7467 10.9202C19.5734 11.2536 19.4829 11.6239 19.4829 11.9997C19.4829 12.3754 19.5734 12.7457 19.7467 13.0791C19.9201 13.4125 20.1712 13.6993 20.4788 13.9152C20.9512 14.2535 21.2808 14.7556 21.4035 15.3236C21.5261 15.8916 21.433 16.4849 21.1423 16.988C20.8516 17.4912 20.3841 17.8682 19.8308 18.0457C19.2775 18.2231 18.6779 18.1884 18.1488 17.9482C17.8081 17.7894 17.4341 17.7151 17.0585 17.7315C16.683 17.7479 16.3169 17.8546 15.9913 18.0425C15.6657 18.2303 15.3901 18.4939 15.188 18.8108C14.9858 19.1277 14.8629 19.4887 14.8298 19.8632C14.7747 20.4428 14.5055 20.9811 14.0747 21.3729C13.6439 21.7646 13.0826 21.9817 12.5003 21.9817C11.918 21.9817 11.3567 21.7646 10.9259 21.3729C10.4951 20.9811 10.2259 20.4428 10.1708 19.8632C10.1378 19.4886 10.0149 19.1275 9.81268 18.8104C9.61045 18.4934 9.33479 18.2298 9.00905 18.0419C8.68331 17.854 8.31708 17.7474 7.9414 17.7311C7.56571 17.7147 7.19162 17.7892 6.85082 17.9482C6.32171 18.1884 5.72214 18.2231 5.16882 18.0457C4.61549 17.8682 4.14799 17.4912 3.8573 16.988C3.56661 16.4849 3.47353 15.8916 3.59618 15.3236C3.71882 14.7556 4.04842 14.2535 4.52082 13.9152C4.82844 13.6993 5.07955 13.4125 5.2529 13.0791C5.42626 12.7457 5.51677 12.3754 5.51677 11.9997C5.51677 11.6239 5.42626 11.2536 5.2529 10.9202C5.07955 10.5868 4.82844 10.3 4.52082 10.0842C4.04908 9.7456 3.72007 9.24375 3.59772 8.67613C3.47537 8.10852 3.56842 7.51569 3.8588 7.01286C4.14918 6.51004 4.61613 6.13313 5.16891 5.95539C5.72168 5.77766 6.3208 5.81179 6.84982 6.05115C7.19057 6.20989 7.56456 6.28419 7.94012 6.26777C8.31567 6.25135 8.68175 6.1447 9.00735 5.95683C9.33296 5.76896 9.60851 5.50541 9.81068 5.18849C10.0129 4.87157 10.1357 4.51061 10.1688 4.13615" stroke="black" stroke-opacity="0.2" stroke-width="1.5" stroke-linecap="round" stroke-linejoin="round"/>
<path d="M10.1708 4.13615C10.2259 3.55649 10.4951 3.0182 10.9259 2.62643C11.3567 2.23467 11.918 2.01758 12.5003 2.01758C13.0826 2.01758 13.6439 2.23467 14.0747 2.62643C14.5055 3.0182 14.7747 3.55649 14.8298 4.13615C14.8629 4.51061 14.9858 4.87157 15.188 5.18849C15.3901 5.50541 15.6657 5.76896 15.9913 5.95683C16.3169 6.1447 16.683 6.25135 17.0585 6.26777C17.4341 6.28419 17.8081 6.20989 18.1488 6.05115C18.6779 5.81093 19.2775 5.77617 19.8308 5.95364C20.3841 6.1311 20.8516 6.5081 21.1423 7.01126C21.433 7.51441 21.5261 8.10772 21.4035 8.67572C21.2808 9.24372 20.9512 9.74577 20.4788 10.0842C20.1712 10.3 19.9201 10.5868 19.7467 10.9202C19.5734 11.2536 19.4829 11.6239 19.4829 11.9997C19.4829 12.3754 19.5734 12.7457 19.7467 13.0791C19.9201 13.4125 20.1712 13.6993 20.4788 13.9152C20.9512 14.2535 21.2808 14.7556 21.4035 15.3236C21.5261 15.8916 21.433 16.4849 21.1423 16.988C20.8516 17.4912 20.3841 17.8682 19.8308 18.0457C19.2775 18.2231 18.6779 18.1884 18.1488 17.9482C17.8081 17.7894 17.4341 17.7151 17.0585 17.7315C16.683 17.7479 16.3169 17.8546 15.9913 18.0425C15.6657 18.2303 15.3901 18.4939 15.188 18.8108C14.9858 19.1277 14.8629 19.4887 14.8298 19.8632C14.7747 20.4428 14.5055 20.9811 14.0747 21.3729C13.6439 21.7646 13.0826 21.9817 12.5003 21.9817C11.918 21.9817 11.3567 21.7646 10.9259 21.3729C10.4951 20.9811 10.2259 20.4428 10.1708 19.8632C10.1378 19.4886 10.0149 19.1275 9.81268 18.8104C9.61045 18.4934 9.33479 18.2298 9.00905 18.0419C8.68331 17.854 8.31708 17.7474 7.9414 17.7311C7.56571 17.7147 7.19162 17.7892 6.85082 17.9482C6.32171 18.1884 5.72214 18.2231 5.16882 18.0457C4.61549 17.8682 4.14799 17.4912 3.8573 16.988C3.56661 16.4849 3.47353 15.8916 3.59618 15.3236C3.71882 14.7556 4.04842 14.2535 4.52082 13.9152C4.82844 13.6993 5.07955 13.4125 5.2529 13.0791C5.42626 12.7457 5.51677 12.3754 5.51677 11.9997C5.51677 11.6239 5.42626 11.2536 5.2529 10.9202C5.07955 10.5868 4.82844 10.3 4.52082 10.0842C4.04908 9.7456 3.72007 9.24375 3.59772 8.67613C3.47537 8.10852 3.56842 7.51569 3.8588 7.01286C4.14918 6.51004 4.61613 6.13313 5.16891 5.95539C5.72168 5.77766 6.3208 5.81179 6.84982 6.05115C7.19057 6.20989 7.56456 6.28419 7.94012 6.26777C8.31567 6.25135 8.68175 6.1447 9.00735 5.95683C9.33296 5.76896 9.60851 5.50541 9.81068 5.18849C10.0129 4.87157 10.1357 4.51061 10.1688 4.13615" stroke="black" stroke-opacity="0.2" stroke-width="1.5" stroke-linecap="round" stroke-linejoin="round"/>
<path d="M10.1708 4.13615C10.2259 3.55649 10.4951 3.0182 10.9259 2.62643C11.3567 2.23467 11.918 2.01758 12.5003 2.01758C13.0826 2.01758 13.6439 2.23467 14.0747 2.62643C14.5055 3.0182 14.7747 3.55649 14.8298 4.13615C14.8629 4.51061 14.9858 4.87157 15.188 5.18849C15.3901 5.50541 15.6657 5.76896 15.9913 5.95683C16.3169 6.1447 16.683 6.25135 17.0585 6.26777C17.4341 6.28419 17.8081 6.20989 18.1488 6.05115C18.6779 5.81093 19.2775 5.77617 19.8308 5.95364C20.3841 6.1311 20.8516 6.5081 21.1423 7.01126C21.433 7.51441 21.5261 8.10772 21.4035 8.67572C21.2808 9.24372 20.9512 9.74577 20.4788 10.0842C20.1712 10.3 19.9201 10.5868 19.7467 10.9202C19.5734 11.2536 19.4829 11.6239 19.4829 11.9997C19.4829 12.3754 19.5734 12.7457 19.7467 13.0791C19.9201 13.4125 20.1712 13.6993 20.4788 13.9152C20.9512 14.2535 21.2808 14.7556 21.4035 15.3236C21.5261 15.8916 21.433 16.4849 21.1423 16.988C20.8516 17.4912 20.3841 17.8682 19.8308 18.0457C19.2775 18.2231 18.6779 18.1884 18.1488 17.9482C17.8081 17.7894 17.4341 17.7151 17.0585 17.7315C16.683 17.7479 16.3169 17.8546 15.9913 18.0425C15.6657 18.2303 15.3901 18.4939 15.188 18.8108C14.9858 19.1277 14.8629 19.4887 14.8298 19.8632C14.7747 20.4428 14.5055 20.9811 14.0747 21.3729C13.6439 21.7646 13.0826 21.9817 12.5003 21.9817C11.918 21.9817 11.3567 21.7646 10.9259 21.3729C10.4951 20.9811 10.2259 20.4428 10.1708 19.8632C10.1378 19.4886 10.0149 19.1275 9.81268 18.8104C9.61045 18.4934 9.33479 18.2298 9.00905 18.0419C8.68331 17.854 8.31708 17.7474 7.9414 17.7311C7.56571 17.7147 7.19162 17.7892 6.85082 17.9482C6.32171 18.1884 5.72214 18.2231 5.16882 18.0457C4.61549 17.8682 4.14799 17.4912 3.8573 16.988C3.56661 16.4849 3.47353 15.8916 3.59618 15.3236C3.71882 14.7556 4.04842 14.2535 4.52082 13.9152C4.82844 13.6993 5.07955 13.4125 5.2529 13.0791C5.42626 12.7457 5.51677 12.3754 5.51677 11.9997C5.51677 11.6239 5.42626 11.2536 5.2529 10.9202C5.07955 10.5868 4.82844 10.3 4.52082 10.0842C4.04908 9.7456 3.72007 9.24375 3.59772 8.67613C3.47537 8.10852 3.56842 7.51569 3.8588 7.01286C4.14918 6.51004 4.61613 6.13313 5.16891 5.95539C5.72168 5.77766 6.3208 5.81179 6.84982 6.05115C7.19057 6.20989 7.56456 6.28419 7.94012 6.26777C8.31567 6.25135 8.68175 6.1447 9.00735 5.95683C9.33296 5.76896 9.60851 5.50541 9.81068 5.18849C10.0129 4.87157 10.1357 4.51061 10.1688 4.13615" stroke="black" stroke-opacity="0.2" stroke-width="1.5" stroke-linecap="round" stroke-linejoin="round"/>
<path d="M12.5 15C14.1569 15 15.5 13.6569 15.5 12C15.5 10.3431 14.1569 9 12.5 9C10.8431 9 9.5 10.3431 9.5 12C9.5 13.6569 10.8431 15 12.5 15Z" stroke="#333333" stroke-width="1.5" stroke-linecap="round" stroke-linejoin="round"/>
<path d="M12.5 15C14.1569 15 15.5 13.6569 15.5 12C15.5 10.3431 14.1569 9 12.5 9C10.8431 9 9.5 10.3431 9.5 12C9.5 13.6569 10.8431 15 12.5 15Z" stroke="black" stroke-opacity="0.2" stroke-width="1.5" stroke-linecap="round" stroke-linejoin="round"/>
<path d="M12.5 15C14.1569 15 15.5 13.6569 15.5 12C15.5 10.3431 14.1569 9 12.5 9C10.8431 9 9.5 10.3431 9.5 12C9.5 13.6569 10.8431 15 12.5 15Z" stroke="black" stroke-opacity="0.2" stroke-width="1.5" stroke-linecap="round" stroke-linejoin="round"/>
<path d="M12.5 15C14.1569 15 15.5 13.6569 15.5 12C15.5 10.3431 14.1569 9 12.5 9C10.8431 9 9.5 10.3431 9.5 12C9.5 13.6569 10.8431 15 12.5 15Z" stroke="black" stroke-opacity="0.2" stroke-width="1.5" stroke-linecap="round" stroke-linejoin="round"/>
</svg>
